<svg viewBox="0 0 1712 297" fill="none" xmlns="http://www.w3.org/2000/svg">
                    <g opacity="0.1">
                        <path d="M8 235L9 223.4L26.6 220.6L31.6 109.6L14.4 106.2L15.6 94.8L75 94.8C89.8 94.8 102.4 97.2667 112.8 102.2C123.2 107 131.133 114 136.6 123.2C142.2 132.4 145 143.533 145 156.6C145 173.133 141.533 187.267 134.6 199C127.667 210.6 117.667 219.533 104.6 225.8C91.6667 231.933 76 235 57.6 235H8ZM52.8 221.4H57.2C69.8667 221.4 80.6667 219 89.6 214.2C98.5333 209.267 105.333 202.133 110 192.8C114.8 183.333 117.2 171.733 117.2 158C117.2 147.067 115.4 137.933 111.8 130.6C108.2 123.133 102.867 117.533 95.8 113.8C88.8667 109.933 80.4667 108 70.6 108H57.4L52.8 221.4ZM172.734 153.4C172.868 151 172.601 149.133 171.934 147.8C171.268 146.467 169.868 145.8 167.734 145.8C166.401 145.8 164.868 146.067 163.134 146.6C161.401 147.133 159.334 147.933 156.934 149L153.134 137.2C155.801 135.867 158.734 134.667 161.934 133.6C165.134 132.533 168.334 131.733 171.534 131.2C174.734 130.533 177.601 130.2 180.134 130.2C186.001 130.2 190.268 132.067 192.934 135.8C195.601 139.4 196.534 144.6 195.734 151.4L192.334 182.2L193.734 182.4L203.934 156.4C206.334 150.267 208.668 145.267 210.934 141.4C213.334 137.533 216.001 134.733 218.934 133C221.868 131.133 225.534 130.2 229.934 130.2C233.801 130.2 237.001 130.933 239.534 132.4C242.068 133.867 243.934 135.8 245.134 138.2C246.334 140.467 246.934 142.867 246.934 145.4C246.934 148.6 246.001 151.733 244.134 154.8C242.268 157.733 239.268 160.067 235.134 161.8L230.734 156.4C229.268 154.267 228.001 152.867 226.934 152.2C226.001 151.533 224.868 151.2 223.534 151.2C222.468 151.2 221.468 151.467 220.534 152C219.734 152.533 218.801 153.6 217.734 155.2C216.801 156.667 215.601 158.867 214.134 161.8C212.801 164.733 211.068 168.6 208.934 173.4C205.468 181.267 202.734 187.6 200.734 192.4C198.734 197.2 197.201 201.133 196.134 204.2C195.201 207.267 194.534 209.933 194.134 212.2C193.734 214.467 193.401 217 193.134 219.8L191.534 235H169.134L172.734 153.4ZM303.973 130.2C314.373 130.2 322.24 132.533 327.573 137.2C333.04 141.733 335.773 148 335.773 156C335.773 161.067 334.84 165.467 332.973 169.2C331.107 172.8 328.44 175.867 324.973 178.4C321.507 180.933 317.44 183.133 312.773 185C308.24 186.867 303.24 188.533 297.773 190L277.373 195.2C277.773 199.733 278.907 203.933 280.773 207.8C282.64 211.667 285.24 214.8 288.573 217.2C292.04 219.6 296.04 220.8 300.573 220.8C303.507 220.8 306.373 220.4 309.173 219.6C312.107 218.667 315.04 217.267 317.973 215.4C320.907 213.533 323.973 211.267 327.173 208.6L334.773 218.6C332.907 220.733 330.573 222.933 327.773 225.2C325.107 227.467 321.973 229.6 318.373 231.6C314.907 233.467 311.107 234.933 306.973 236C302.973 237.2 298.773 237.8 294.373 237.8C285.44 237.8 277.707 235.867 271.173 232C264.773 228 259.84 222.4 256.373 215.2C253.04 208 251.373 199.6 251.373 190C251.373 178 253.507 167.533 257.773 158.6C262.173 149.533 268.307 142.533 276.173 137.6C284.04 132.667 293.307 130.2 303.973 130.2ZM311.773 156.4C311.773 153.733 311.373 151.467 310.573 149.6C309.907 147.6 308.773 146 307.173 144.8C305.573 143.6 303.573 143 301.173 143C296.773 143 292.84 144.467 289.373 147.4C285.907 150.333 283.107 154.6 280.973 160.2C278.973 165.8 277.707 172.867 277.173 181.4L293.173 177.2C297.307 176.133 300.707 174.8 303.373 173.2C306.173 171.6 308.24 169.467 309.573 166.8C311.04 164.133 311.773 160.667 311.773 156.4ZM442.63 213.8C442.496 216.867 442.763 219.067 443.43 220.4C444.096 221.733 445.563 222.4 447.83 222.4C449.163 222.4 450.63 222.067 452.23 221.4C453.963 220.6 455.63 219.6 457.23 218.4L461.83 228.2C460.23 229.533 458.03 231 455.23 232.6C452.563 234.067 449.63 235.267 446.43 236.2C443.23 237.267 440.03 237.8 436.83 237.8C432.963 237.8 429.63 237 426.83 235.4C424.163 233.933 422.23 231.6 421.03 228.4C419.83 225.2 419.496 221.133 420.03 216.2L424.03 179.2L422.23 178.8L417.43 196.8C415.83 202.933 414.03 208.533 412.03 213.6C410.03 218.667 407.696 223 405.03 226.6C402.496 230.2 399.296 233 395.43 235C391.696 236.867 387.096 237.8 381.63 237.8C374.296 237.8 368.23 236 363.43 232.4C358.63 228.667 355.03 223.667 352.63 217.4C350.23 211 349.03 203.667 349.03 195.4C349.03 185.8 350.163 177 352.43 169C354.83 161 358.23 154.133 362.63 148.4C367.03 142.533 372.23 138.067 378.23 135C384.363 131.8 391.163 130.2 398.63 130.2C404.096 130.2 408.963 130.8 413.23 132C417.63 133.067 421.03 134.2 423.43 135.4L440.03 130.6L445.23 132.8L442.63 213.8ZM387.43 222.2C390.096 222.2 392.296 221.6 394.03 220.4C395.896 219.2 397.696 217 399.43 213.8C401.296 210.467 403.163 205.8 405.03 199.8C407.03 193.667 409.43 185.6 412.23 175.6L419.83 147.6C417.83 146.533 415.163 145.6 411.83 144.8C408.496 144 405.296 143.6 402.23 143.6C397.696 143.6 393.696 144.933 390.23 147.6C386.896 150.267 384.03 154 381.63 158.8C379.363 163.6 377.63 169.267 376.43 175.8C375.363 182.2 374.83 189.067 374.83 196.4C374.83 202.533 375.23 207.533 376.03 211.4C376.963 215.133 378.363 217.867 380.23 219.6C382.23 221.333 384.63 222.2 387.43 222.2ZM543.905 165.2C544.438 159.333 544.238 155.2 543.305 152.8C542.371 150.4 540.438 149.2 537.505 149.2C535.371 149.2 533.638 149.867 532.305 151.2C530.971 152.533 529.705 154.8 528.505 158C527.305 161.2 525.771 165.6 523.905 171.2L503.905 235H479.305L482.305 153.4C482.438 150.6 482.105 148.667 481.305 147.6C480.638 146.4 479.305 145.8 477.305 145.8C476.105 145.8 474.638 146.133 472.905 146.8C471.305 147.333 469.171 148.067 466.505 149L462.705 137.2C464.838 136.133 467.371 135.067 470.305 134C473.371 132.8 476.505 131.867 479.705 131.2C483.038 130.533 486.171 130.2 489.105 130.2C495.371 130.2 499.838 132 502.505 135.6C505.171 139.067 506.105 144.4 505.305 151.6L499.705 205.4L501.505 205.8L513.905 162C515.905 154.8 518.171 148.867 520.705 144.2C523.238 139.533 526.305 136.067 529.905 133.8C533.638 131.4 538.305 130.2 543.905 130.2C549.638 130.2 554.105 131.4 557.305 133.8C560.638 136.067 562.838 139.533 563.905 144.2C565.105 148.733 565.305 154.467 564.505 161.4L559.305 205.8L560.905 206.2L574.305 162.6C576.705 155.133 579.171 149 581.705 144.2C584.238 139.4 587.371 135.867 591.105 133.6C594.971 131.333 599.838 130.2 605.705 130.2C611.838 130.2 616.571 131.467 619.905 134C623.371 136.533 625.705 140.2 626.905 145C628.105 149.8 628.371 155.6 627.705 162.4L623.705 213.4C623.438 216.6 623.571 218.933 624.105 220.4C624.771 221.867 626.171 222.6 628.305 222.6C629.771 222.6 631.371 222.267 633.105 221.6C634.971 220.933 636.771 220 638.505 218.8L642.905 228.2C641.038 229.667 638.505 231.2 635.305 232.8C632.238 234.267 629.038 235.467 625.705 236.4C622.505 237.333 619.505 237.8 616.705 237.8C612.171 237.8 608.505 237 605.705 235.4C602.905 233.933 600.905 231.8 599.705 229C598.638 226.2 598.305 222.867 598.705 219L603.705 164.4C604.238 158.533 604.038 154.533 603.105 152.4C602.305 150.267 600.505 149.2 597.705 149.2C595.971 149.2 594.505 149.733 593.305 150.8C592.105 151.733 590.771 153.867 589.305 157.2C587.971 160.533 586.171 165.667 583.905 172.6L562.705 235H537.905L543.905 165.2ZM713.603 109.8L696.403 106.4L697.603 94.8L757.803 94.8L756.603 106.4L739.403 109.6L735.003 220.6L754.203 223L753.003 235H691.203L692.203 223L708.803 220.6L713.603 109.8ZM764.227 134.2L779.627 132.6L789.427 100.4H805.827L804.027 133H833.027L832.227 146.4H803.427L800.427 204.8C800.16 210 800.893 214 802.627 216.8C804.493 219.6 807.693 221 812.227 221C815.827 221 819.16 220.133 822.227 218.4C825.427 216.533 828.56 214.267 831.627 211.6L838.627 220.8C836.227 223.867 833.227 226.733 829.627 229.4C826.027 231.933 822.027 233.933 817.627 235.4C813.36 237 808.76 237.8 803.827 237.8C793.693 237.8 786.36 235.133 781.827 229.8C777.293 224.467 775.293 217.2 775.827 208L778.627 146.4H762.627L764.227 134.2ZM863.425 269.4L856.425 259.8C862.292 255.8 866.692 252.067 869.625 248.6C872.558 245.133 874.025 242.067 874.025 239.4C874.025 237.933 873.558 236.667 872.625 235.6C871.692 234.667 870.358 233.933 868.625 233.4L860.625 230.6C859.292 226.6 859.092 222.8 860.025 219.2C861.092 215.467 863.025 212.467 865.825 210.2C868.758 207.933 872.425 206.8 876.825 206.8C882.158 206.8 886.492 208.6 889.825 212.2C893.292 215.8 895.025 220.6 895.025 226.6C895.025 230.067 894.292 233.667 892.825 237.4C891.492 241.267 889.425 245.067 886.625 248.8C883.958 252.533 880.692 256.133 876.825 259.6C872.958 263.2 868.492 266.467 863.425 269.4ZM1068.04 125C1068.04 129.933 1066.77 134.667 1064.24 139.2C1061.84 143.6 1058.3 147.667 1053.64 151.4C1049.1 155 1043.57 157.933 1037.04 160.2V161C1048.9 162.6 1057.97 166.133 1064.24 171.6C1070.5 177.067 1073.64 184.533 1073.64 194C1073.64 200.4 1072.17 206.133 1069.24 211.2C1066.44 216.267 1062.3 220.6 1056.84 224.2C1051.37 227.667 1044.7 230.333 1036.84 232.2C1029.1 234.067 1020.24 235 1010.24 235L956.438 235L957.638 223.6L975.238 220.6L980.038 109.6L962.838 106.2L964.038 94.8L1017.84 94.8C1034.64 94.8 1047.17 97.2667 1055.44 102.2C1063.84 107.133 1068.04 114.733 1068.04 125ZM1011.64 158.2C1018.3 157 1023.84 155.133 1028.24 152.6C1032.77 150.067 1036.1 146.8 1038.24 142.8C1040.5 138.8 1041.64 134.133 1041.64 128.8C1041.64 121.467 1039.37 116.2 1034.84 113C1030.44 109.667 1023.3 108 1013.44 108H1005.84L1001.24 221.4H1010.84C1018.44 221.4 1024.9 220.4 1030.24 218.4C1035.57 216.4 1039.64 213.333 1042.44 209.2C1045.37 204.933 1046.84 199.533 1046.84 193C1046.84 187.667 1045.84 183.333 1043.84 180C1041.84 176.533 1038.97 173.933 1035.24 172.2C1031.5 170.333 1026.9 169.4 1021.44 169.4C1019.3 169.4 1017.5 169.467 1016.04 169.6C1014.7 169.733 1013.1 170 1011.24 170.4L1011.64 158.2ZM1079.73 139.8C1082 138.067 1084.73 136.533 1087.93 135.2C1091.13 133.733 1094.46 132.533 1097.93 131.6C1101.4 130.667 1104.46 130.2 1107.13 130.2C1113.13 130.2 1117.6 131.8 1120.53 135C1123.46 138.067 1124.6 142.6 1123.93 148.6L1118.93 203.6C1118.53 209.2 1118.66 213.133 1119.33 215.4C1120 217.667 1121.73 218.8 1124.53 218.8C1126.53 218.8 1128.2 218.267 1129.53 217.2C1130.86 216 1132.2 213.867 1133.53 210.8C1135 207.733 1136.66 203.467 1138.53 198L1159.93 132.8H1184.93L1181.13 214.6C1181 217.267 1181.33 219.2 1182.13 220.4C1182.93 221.6 1184.26 222.2 1186.13 222.2C1187.73 222.2 1189.46 221.867 1191.33 221.2C1193.33 220.533 1195.2 219.8 1196.93 219L1200.53 230.4C1198.93 231.467 1197.06 232.467 1194.93 233.4C1192.8 234.2 1190.53 234.933 1188.13 235.6C1185.86 236.267 1183.6 236.8 1181.33 237.2C1179.06 237.6 1177 237.8 1175.13 237.8C1168.46 237.8 1163.8 235.867 1161.13 232C1158.6 228 1157.66 222.6 1158.33 215.8L1164.33 162.2L1162.53 161.8L1148.53 207.6C1146.4 214.4 1143.93 220.067 1141.13 224.6C1138.33 229 1134.93 232.333 1130.93 234.6C1127.06 236.733 1122.4 237.8 1116.93 237.8C1108.66 237.8 1102.66 235.133 1098.93 229.8C1095.33 224.467 1093.93 216.133 1094.73 204.8L1098.93 153.4C1099.2 150.2 1098.93 148.067 1098.13 147C1097.46 145.933 1096.2 145.4 1094.33 145.4C1092.86 145.4 1091.2 145.733 1089.33 146.4C1087.6 147.067 1085.86 148 1084.13 149.2L1079.73 139.8ZM1223.96 153.8C1224.23 150.867 1224.03 148.8 1223.36 147.6C1222.7 146.267 1221.3 145.6 1219.16 145.6C1217.56 145.6 1215.76 145.867 1213.76 146.4C1211.9 146.8 1209.63 147.533 1206.96 148.6L1203.16 137.4C1205.83 135.933 1209.5 134.4 1214.16 132.8C1218.96 131.067 1224.03 130.2 1229.36 130.2C1233.63 130.2 1237.23 131.067 1240.16 132.8C1243.23 134.4 1245.43 137 1246.76 140.6C1248.23 144.067 1248.7 148.667 1248.16 154.4L1243.96 214C1243.83 216.8 1244.03 218.933 1244.56 220.4C1245.23 221.867 1246.63 222.6 1248.76 222.6C1250.36 222.6 1252.1 222.133 1253.96 221.2C1255.96 220.267 1258.1 218.933 1260.36 217.2L1264.96 227C1263.36 228.333 1261.1 229.867 1258.16 231.6C1255.36 233.333 1252.16 234.8 1248.56 236C1244.96 237.2 1241.3 237.8 1237.56 237.8C1232.63 237.8 1228.76 236.933 1225.96 235.2C1223.3 233.467 1221.43 231 1220.36 227.8C1219.3 224.467 1218.9 220.667 1219.16 216.4L1223.96 153.8ZM1219.96 97.2C1219.96 92.8 1221.36 89.2 1224.16 86.4C1227.1 83.4667 1230.96 82 1235.76 82C1238.83 82 1241.5 82.6667 1243.76 84C1246.16 85.2 1248.03 86.9333 1249.36 89.2C1250.7 91.4667 1251.36 94.0667 1251.36 97C1251.36 101.4 1249.9 105.067 1246.96 108C1244.16 110.8 1240.43 112.2 1235.76 112.2C1230.96 112.2 1227.1 110.8 1224.16 108C1221.36 105.2 1219.96 101.6 1219.96 97.2ZM1285.05 97.2L1266.85 93.4L1268.45 81.6L1305.25 81.6L1308.45 83.8L1304.05 214C1303.92 216.667 1304.19 218.733 1304.85 220.2C1305.65 221.667 1307.32 222.4 1309.85 222.4C1311.32 222.4 1312.99 222 1314.85 221.2C1316.72 220.267 1318.72 219 1320.85 217.4L1325.45 227C1324.12 228.2 1322.12 229.667 1319.45 231.4C1316.79 233.133 1313.65 234.6 1310.05 235.8C1306.59 237.133 1302.79 237.8 1298.65 237.8C1294.12 237.8 1290.39 237 1287.45 235.4C1284.65 233.933 1282.65 231.667 1281.45 228.6C1280.25 225.533 1279.72 221.867 1279.85 217.6L1285.05 97.2ZM1425.63 214.2C1425.5 217.133 1425.77 219.267 1426.43 220.6C1427.1 221.933 1428.57 222.6 1430.83 222.6C1432.43 222.6 1434.17 222.2 1436.03 221.4C1437.9 220.6 1439.77 219.6 1441.63 218.4L1445.83 227.8C1444.37 229 1442.23 230.4 1439.43 232C1436.63 233.6 1433.5 234.933 1430.03 236C1426.7 237.2 1423.23 237.8 1419.63 237.8C1412.83 237.8 1408.23 235.733 1405.83 231.6C1403.43 227.467 1402.57 222.333 1403.23 216.2L1407.03 179L1405.43 178.6L1400.03 197.6C1398.57 203.333 1396.9 208.667 1395.03 213.6C1393.3 218.4 1391.1 222.667 1388.43 226.4C1385.77 230 1382.43 232.8 1378.43 234.8C1374.57 236.8 1369.77 237.8 1364.03 237.8C1358.83 237.8 1354.23 236.733 1350.23 234.6C1346.37 232.467 1343.03 229.467 1340.23 225.6C1337.43 221.6 1335.37 216.933 1334.03 211.6C1332.7 206.267 1332.03 200.333 1332.03 193.8C1332.03 184.467 1333.17 175.933 1335.43 168.2C1337.83 160.333 1341.17 153.6 1345.43 148C1349.83 142.267 1355.1 137.867 1361.23 134.8C1367.5 131.733 1374.57 130.2 1382.43 130.2C1387.1 130.2 1391.5 130.733 1395.63 131.8C1399.9 132.867 1403.3 134 1405.83 135.2L1407.43 97.6L1388.03 93.4L1389.63 81.6H1426.23L1429.63 84.4L1425.63 214.2ZM1370.23 222.2C1372.77 222.2 1374.97 221.6 1376.83 220.4C1378.83 219.2 1380.7 217 1382.43 213.8C1384.17 210.6 1386.03 206 1388.03 200C1390.03 194 1392.37 186.2 1395.03 176.6L1403.03 147.4C1401.57 146.6 1399.77 145.933 1397.63 145.4C1395.5 144.867 1393.3 144.467 1391.03 144.2C1388.9 143.8 1386.97 143.6 1385.23 143.6C1380.57 143.6 1376.5 144.933 1373.03 147.6C1369.57 150.267 1366.7 154 1364.43 158.8C1362.17 163.6 1360.43 169.133 1359.23 175.4C1358.17 181.667 1357.63 188.467 1357.63 195.8C1357.63 204.2 1358.63 210.733 1360.63 215.4C1362.63 219.933 1365.83 222.2 1370.23 222.2ZM1514.19 109.8L1496.99 106.4L1498.19 94.8L1558.39 94.8L1557.19 106.4L1539.99 109.6L1535.59 220.6L1554.79 223L1553.59 235L1491.79 235L1492.79 223L1509.39 220.6L1514.19 109.8ZM1564.81 134.2L1580.21 132.6L1590.01 100.4H1606.41L1604.61 133H1633.61L1632.81 146.4H1604.01L1601.01 204.8C1600.75 210 1601.48 214 1603.21 216.8C1605.08 219.6 1608.28 221 1612.81 221C1616.41 221 1619.75 220.133 1622.81 218.4C1626.01 216.533 1629.15 214.267 1632.21 211.6L1639.21 220.8C1636.81 223.867 1633.81 226.733 1630.21 229.4C1626.61 231.933 1622.61 233.933 1618.21 235.4C1613.95 237 1609.35 237.8 1604.41 237.8C1594.28 237.8 1586.95 235.133 1582.41 229.8C1577.88 224.467 1575.88 217.2 1576.41 208L1579.21 146.4H1563.21L1564.81 134.2ZM1658.21 223.4C1658.21 220.067 1658.94 217.133 1660.41 214.6C1662.01 211.933 1664.21 209.867 1667.01 208.4C1669.81 206.8 1673.01 206 1676.61 206C1680.21 206 1683.34 206.667 1686.01 208C1688.81 209.2 1690.94 211 1692.41 213.4C1693.88 215.667 1694.61 218.333 1694.61 221.4C1694.61 225 1693.74 228.067 1692.01 230.6C1690.28 233.133 1687.94 235.067 1685.01 236.4C1682.21 237.733 1679.08 238.4 1675.61 238.4C1672.14 238.4 1669.08 237.8 1666.41 236.6C1663.88 235.4 1661.88 233.733 1660.41 231.6C1658.94 229.333 1658.21 226.6 1658.21 223.4Z" fill="#BAC9FD"/>
                    </g>
                </svg>
