<svg width="241" height="114" viewBox="0 0 241 114" fill="none" xmlns="http://www.w3.org/2000/svg">
<path d="M10.1989 39.7358V54.8692H4.25154V39.7358H0V34.9703H14.4266V39.7358H10.1989Z" fill="#29364B"/>
<path d="M31.5997 50.1269V54.8924H16.2178V34.9935H31.5997V39.5963H22.3801V42.4789H29.8322V46.8957H22.3801V50.1502H31.5997V50.1269Z" fill="#29364B"/>
<path d="M45.3577 47.2675L51.0901 47.593C50.8274 50.0338 49.8958 51.9168 48.3194 53.2186C46.743 54.5204 44.7844 55.1713 42.4915 55.1713C39.7208 55.1713 37.4756 54.2879 35.7559 52.4979C34.0362 50.708 33.2002 48.2439 33.2002 45.0823C33.2002 41.9673 34.0123 39.4335 35.6365 37.5273C37.2607 35.6211 39.5058 34.6447 42.4198 34.6447C45.1188 34.6447 47.1968 35.3654 48.6538 36.8299C50.1108 38.2944 50.9229 40.2238 51.114 42.6415L45.2621 42.9437C45.2621 41.6186 44.9994 40.6423 44.4739 40.0611C43.9485 39.48 43.3275 39.1778 42.6348 39.1778C40.6523 39.1778 39.673 41.1072 39.673 44.9894C39.673 47.1513 39.9358 48.639 40.4374 49.4062C40.9628 50.1733 41.6794 50.5685 42.6109 50.5685C44.2112 50.5685 45.1427 49.4759 45.3577 47.2675Z" fill="#29364B"/>
<path d="M70.7233 34.9703V54.8692H64.4416V47.1282H59.6407V54.8692H53.3828V34.9703H59.6646V42.2929H64.4655V34.9703H70.7233Z" fill="#29364B"/>
<path d="M13.2323 83.1599V85.3451H0V65.4462H12.9457V67.6313H2.5557V73.9543H10.796V75.9768H2.5557V83.1599H13.2323Z" fill="#29364B"/>
<path d="M30.5968 85.3451H27.9694L25.9153 79.5335H18.3199L16.4807 85.3451H14.3311L20.9711 65.4462H23.8612L30.5968 85.3451ZM25.3659 77.6505L22.1892 68.073L19.0364 77.6505H25.3659Z" fill="#29364B"/>
<path d="M31.0029 80.0916L33.3198 79.5801C34.2513 82.3 36.2576 83.6483 39.3627 83.6483C40.9869 83.6483 42.205 83.3228 43.0171 82.6487C43.8292 81.9745 44.2352 81.0912 44.2352 79.9521C44.2352 79.092 43.9247 78.4178 43.3037 77.9064C42.6827 77.395 41.9662 77.023 41.1302 76.8371L37.0458 75.8607C35.9949 75.605 35.1112 75.2796 34.4424 74.9076C33.7736 74.5357 33.2004 73.9545 32.7227 73.1874C32.245 72.397 32.03 71.5136 32.03 70.514C32.03 68.8403 32.6749 67.5153 33.9647 66.5389C35.2545 65.5393 36.9025 65.0511 38.9328 65.0511C42.6588 65.0511 45.0951 66.6784 46.2655 69.9561L43.9486 70.6303C43.6859 69.468 43.041 68.5846 42.0378 67.9802C41.0346 67.3758 39.9837 67.0736 38.8372 67.0736C37.7146 67.0736 36.7115 67.3525 35.8516 67.9337C34.9678 68.5149 34.5379 69.3285 34.5379 70.3746C34.5379 71.8391 35.6366 72.8387 37.8579 73.3734L41.6795 74.2567C45.1668 75.0703 46.9342 76.9068 46.9342 79.7661C46.9342 81.4863 46.2655 82.9276 44.9518 84.0667C43.6381 85.2058 41.799 85.7869 39.4105 85.7869C35.1589 85.7637 32.3644 83.8575 31.0029 80.0916Z" fill="#29364B"/>
<path d="M63.3673 65.4462L56.5123 76.9764V85.3451H53.9566V76.9764L47.1016 65.4462H50.135L55.5569 74.582L61.0265 65.4462H63.3673Z" fill="#29364B"/>
<path d="M234.743 59.2858C238.995 61.4012 241.001 65.1671 241.001 69.6537C240.929 78.5105 235.412 85.6937 224.759 85.6937H200.301V34.9003H222.586C231.614 34.9003 238.827 41.7115 238.827 50.4987C238.827 53.5439 237.275 57.2401 234.743 59.2858ZM213.199 46.5003V54.7062H221.63C226.933 54.7062 226.933 46.5003 221.558 46.5003H213.199ZM213.199 65.5158V74.1402H223.851C229.226 74.1402 229.154 65.5158 223.78 65.5158H213.199Z" fill="#4371B8"/>
<path d="M196.765 46.5003C189.027 46.5003 185.157 46.5003 177.514 46.5003V53.6835H195.213C195.213 57.5191 195.213 61.378 195.213 65.2137H177.514C177.514 68.1892 177.514 71.095 177.514 74.1403C185.181 74.1403 189.624 74.1403 197.434 74.1403C197.434 77.9062 197.434 81.8348 197.434 85.6705C185.229 85.6705 176.32 85.6705 164.258 85.6705C164.258 68.7006 164.258 51.7308 164.258 34.9004C176.296 34.9004 184.56 34.9004 196.765 34.9004C196.765 38.6663 196.765 42.5949 196.765 46.5003Z" fill="#4371B8"/>
<path d="M216.279 90.6918C217.211 105.128 206.558 112.427 191.893 112.427C178.828 112.427 161.845 107.127 144.123 97.5263C111.161 79.673 85.7714 52.2888 78.7492 31.8087C75.5247 22.3939 76.0741 14.4437 80.3495 8.79481C87.109 -0.131799 101.106 -0.596727 112.332 1.58843C61.5759 -8.63998 59.9278 37.6203 117.682 82.4161C165.547 119.82 219.91 124.957 216.279 90.6918Z" fill="#BDC7E6"/>
<path d="M161.32 34.9005H148.088L141.472 54.0555L139.155 62.6799H138.94L130.103 35.7141C128.025 35.7141 126.544 35.7141 124.442 35.7141L117.014 58.7281C119.784 61.5409 122.627 64.1445 125.397 66.5621L127.045 61.7501H127.26L130.294 70.6302C133.351 73.0711 136.265 75.233 138.892 77.0927C140.946 78.534 143.001 79.9288 145.079 81.2538L161.344 36.8997V34.9005H161.32Z" fill="#4371B8"/>
<path d="M118.876 85.6937L120.022 82.2998C114.791 78.3014 109.799 74.0473 105.189 69.6072L111.161 85.6937H118.876Z" fill="#4371B8"/>
<path d="M113.454 54.9388L113.216 54.0322L106.528 34.8772H99.3145C100.939 38.2712 103.16 41.9209 105.931 45.7333C108.271 48.9878 110.803 52.0563 113.454 54.9388Z" fill="#4371B8"/>
<path d="M210.261 102.408C194.998 122.563 133.351 97.7588 98.4072 57.8447C81.9265 39.0384 75.0715 20.5808 82.6908 10.5151C93.7735 -4.13015 131.321 4.58725 166.551 29.9723C167.602 30.7162 168.629 31.4833 169.632 32.2504C138.009 9.63171 104.761 1.51872 95.2066 14.1183C89.713 21.3711 93.248 33.9242 103.232 47.6163C112.069 59.7509 124.466 70.8859 136.958 79.6731C175.914 107.104 214.202 111.102 212.912 87.5303C213.987 93.4117 213.199 98.5259 210.261 102.408Z" fill="#29364B"/>
</svg>
